<svg xmlns="http://www.w3.org/2000/svg" width="24" height="24" viewBox="0 0 24 24">
  <g id="Configuration" transform="translate(6153 1014.996)">
    <rect id="Rectangle_6713" data-name="Rectangle 6713" width="24" height="24" transform="translate(-6153 -1014.996)" fill="none"/>
    <g id="_84EdAJ01" data-name="84EdAJ01" transform="translate(-6150.021 524.168)">
      <path id="Path_527785" data-name="Path 527785" d="M8.427-1536.144c-.005.013-.044.021-.139.027a9.453,9.453,0,0,0-1.288.2l-.128.032c-.091.023-.227.059-.306.081-.109.031-.578.182-.62.2-.021.009-.064.027-.093.037-.1.04-.428.173-.513.212-.115.052-.594.293-.653.329l-.067.037c-.011.005-.1.06-.207.121a9.287,9.287,0,0,0-2.458,2.169c-.08.1-.163.208-.183.237s-.056.079-.079.108c-.095.121-.468.7-.516.806-.005.011-.023.041-.037.067-.039.063-.281.544-.329.653-.04.087-.173.414-.212.513-.011.029-.028.071-.037.093-.019.045-.171.521-.2.633s-.056.2-.077.286c-.011.044-.025.1-.033.135a9.718,9.718,0,0,0-.2,1.324c-.019.212-.019,1.146,0,1.339.024.253.055.5.089.7.017.107.039.229.045.273s.019.1.025.127.021.088.033.14c.039.168.089.357.115.433.007.019.021.069.032.113.024.091.144.468.173.542l.039.1.068.177a.644.644,0,0,0,.185.3.525.525,0,0,0,.745-.053.558.558,0,0,0,.056-.622c-.024-.063-.053-.14-.065-.173s-.043-.12-.068-.193-.053-.152-.059-.175a.3.3,0,0,0-.02-.057.656.656,0,0,1-.031-.091c-.011-.043-.025-.1-.031-.117-.08-.292-.083-.305-.14-.566-.019-.085-.04-.193-.08-.41a1.28,1.28,0,0,1-.02-.16.647.647,0,0,0-.013-.107,8.2,8.2,0,0,1-.053-.849c0-.221.031-.715.053-.889.045-.34.071-.492.113-.69l.041-.187a8.11,8.11,0,0,1,.48-1.439,9.808,9.808,0,0,1,.525-.986c.013-.019.067-.1.121-.18a7.033,7.033,0,0,1,.618-.813,8.832,8.832,0,0,1,1.046-1c.246-.189.35-.265.55-.4a8.458,8.458,0,0,1,1.2-.662c.139-.064.53-.214.641-.246l.155-.052c.064-.023.148-.049.187-.06.192-.052.334-.087.425-.107l.187-.041a7.671,7.671,0,0,1,2.706-.079,1.083,1.083,0,0,0,.137.019.747.747,0,0,1,.119.02l.183.04c.169.035.549.128.633.155l.153.047c.04.012.088.028.107.035l.153.053c.171.057.441.164.58.228l.16.073c.135.061.4.192.473.234l.147.081c.052.028.156.089.233.137.324.2.373.242.277.242a.545.545,0,0,0-.466.307.358.358,0,0,0-.043.22.357.357,0,0,0,.044.22.563.563,0,0,0,.234.246c.037.017.417.149.846.292s.8.266.819.275l.346.117.306.1h.16c.148,0,.165,0,.23-.036a.538.538,0,0,0,.211-.192.64.64,0,0,0,.053-.444c-.032-.128-.741-2.241-.778-2.316a.543.543,0,0,0-.225-.22.522.522,0,0,0-.738.306.56.56,0,0,0-.007.307.455.455,0,0,1,.044.172c-.005.005-.041-.016-.081-.045-.187-.141-.687-.469-.894-.584l-.12-.067a9.075,9.075,0,0,0-.959-.464l-.213-.087-.083-.033-.107-.04c-.121-.047-.213-.076-.45-.146-.377-.111-.384-.113-.42-.119l-.144-.035c-.125-.033-.165-.041-.409-.087a9.228,9.228,0,0,0-.926-.124c-.091-.008-.125-.016-.124-.028A8.627,8.627,0,0,0,8.427-1536.144Z" fill="#fff"/>
      <path id="Path_527786" data-name="Path 527786" d="M256.844-1294.8a.534.534,0,0,0-.356.4,4.487,4.487,0,0,0-.015.488,1.882,1.882,0,0,1-.016.43,1.194,1.194,0,0,1-.131.056,3.691,3.691,0,0,0-.353.156,4.46,4.46,0,0,0-.806.5c-.091.069-.173.128-.183.132a1.187,1.187,0,0,1-.223-.115c-.113-.067-.24-.14-.284-.163l-.091-.052a.79.79,0,0,0-.365-.133.64.64,0,0,0-.277.085,1,1,0,0,0-.288.368c-.005.011-.02.037-.035.06s-.089.153-.171.293l-.277.48c-.072.124-.145.253-.164.286s-.069.119-.112.191-.077.135-.077.137a.5.5,0,0,1-.035.06.584.584,0,0,0-.081.642c.067.128.108.159.634.461.091.052.167.095.169.095a.211.211,0,0,1,.047.029c.039.029.04.033.033.1-.005.04-.017.124-.028.187a3.85,3.85,0,0,0,0,1.2c.041.244.041.252,0,.288a.285.285,0,0,1-.047.032c-.009,0-.236.129-.5.284a1.641,1.641,0,0,0-.215.144.538.538,0,0,0-.153.46.743.743,0,0,0,.116.269c.032.055.057.1.057.1s.035.063.077.136.093.157.112.19l.164.286c.072.124.2.34.277.48s.157.271.171.293a.555.555,0,0,1,.035.06,1,1,0,0,0,.288.368.64.64,0,0,0,.276.085.8.8,0,0,0,.366-.133c.008-.005.047-.028.087-.049s.168-.095.282-.162a1.248,1.248,0,0,1,.228-.117c.009,0,.092.063.183.132s.2.149.246.178a5.083,5.083,0,0,0,.913.473,1.211,1.211,0,0,1,.131.056,1.918,1.918,0,0,1,.016.434c0,.436.008.514.06.614a.558.558,0,0,0,.316.268,7.044,7.044,0,0,0,1.21.024,7.044,7.044,0,0,0,1.21-.024.554.554,0,0,0,.353-.361c.008-.025.017-.25.021-.5.007-.382.011-.453.028-.462s.068-.029.127-.052a4.931,4.931,0,0,0,1.13-.633c.087-.067.171-.128.188-.139s.083.007.441.221c.015.009.036.02.047.027l.081.044a.809.809,0,0,0,.41.16.584.584,0,0,0,.144-.027.57.57,0,0,0,.348-.3l.076-.129.035-.061c.012-.02.087-.152.168-.291.312-.54.409-.707.437-.759.017-.029.067-.115.112-.191s.081-.141.081-.144a.506.506,0,0,1,.035-.06,1.107,1.107,0,0,0,.139-.31.536.536,0,0,0-.123-.429,1.325,1.325,0,0,0-.244-.179s-.076-.041-.163-.092l-.289-.168-.131-.076.009-.088a1.033,1.033,0,0,1,.021-.137,4.6,4.6,0,0,0,.052-.638,4.6,4.6,0,0,0-.052-.638,1.038,1.038,0,0,1-.021-.137l-.009-.088.131-.076.289-.168c.087-.051.159-.092.163-.092a1.331,1.331,0,0,0,.244-.179.536.536,0,0,0,.123-.429,1.109,1.109,0,0,0-.139-.311.5.5,0,0,1-.035-.06s-.035-.064-.077-.137-.093-.157-.112-.191c-.032-.057-.116-.2-.441-.766l-.168-.29-.035-.061-.076-.129a.57.57,0,0,0-.348-.3c-.173-.055-.278-.029-.554.133l-.081.044-.047.027c-.189.113-.405.236-.416.236a.587.587,0,0,1-.112-.077,4.757,4.757,0,0,0-.871-.548c-.224-.107-.233-.111-.36-.161l-.127-.052c-.017-.009-.021-.08-.028-.462,0-.248-.013-.473-.021-.5a.555.555,0,0,0-.353-.361,7.09,7.09,0,0,0-1.216-.023A7.806,7.806,0,0,0,256.844-1294.8Zm1.736,1.412c.009.45.02.5.14.637.08.093.153.132.392.2a3.063,3.063,0,0,1,.4.147,3.567,3.567,0,0,1,1.073.693l.133.124a.581.581,0,0,0,.288.124.751.751,0,0,0,.5-.169,1.871,1.871,0,0,1,.392-.208,1.454,1.454,0,0,1,.135.212c.064.112.128.221.141.244s.037.064.053.092.064.112.107.185a.988.988,0,0,1,.079.149.436.436,0,0,1-.123.089l-.151.087-.053.031-.053.031-.137.08a.549.549,0,0,0-.3.358.452.452,0,0,0,0,.262,3.4,3.4,0,0,1,.027,1.864.6.6,0,0,0-.025.373.549.549,0,0,0,.3.358l.137.08.053.031.093.053c.037.023.1.06.144.083a.255.255,0,0,1,.083.065.486.486,0,0,1-.072.155c-.043.073-.092.156-.107.185l-.053.092c-.013.021-.077.132-.141.244a1.47,1.47,0,0,1-.135.212,1.869,1.869,0,0,1-.392-.208.752.752,0,0,0-.5-.169.583.583,0,0,0-.288.124l-.133.124a3.75,3.75,0,0,1-1.463.838c-.072.023-.137.041-.144.041a.548.548,0,0,0-.1.041.5.5,0,0,0-.266.3,1.466,1.466,0,0,0-.035.457l-.008.38h-1.026l-.008-.38a2.017,2.017,0,0,0-.028-.44.551.551,0,0,0-.418-.374,3.717,3.717,0,0,1-1.558-.865c-.051-.048-.111-.1-.133-.124a.557.557,0,0,0-.441-.119,1.257,1.257,0,0,0-.365.173c-.045.029-.132.079-.33.188-.044.024-.061.012-.111-.077l-.111-.193c-.04-.067-.084-.143-.1-.168-.028-.047-.128-.223-.156-.273-.008-.015-.031-.052-.051-.084a.143.143,0,0,1-.031-.08.246.246,0,0,1,.084-.067c.043-.023.108-.06.144-.083l.087-.049c.011-.005.085-.048.164-.094.215-.125.285-.205.334-.378a.6.6,0,0,0-.025-.373,3.318,3.318,0,0,1,0-1.753.6.6,0,0,0,.025-.373c-.049-.173-.12-.253-.334-.378-.079-.047-.153-.089-.164-.095l-.06-.035c-.021-.015-.067-.041-.1-.059-.177-.1-.18-.1-.121-.191a.689.689,0,0,0,.041-.064c0-.007.129-.233.236-.414.052-.088.112-.193.135-.233.051-.091.068-.1.112-.079.2.109.285.159.33.188a2.105,2.105,0,0,0,.24.132.531.531,0,0,0,.606-.115,3.723,3.723,0,0,1,.7-.542,4.026,4.026,0,0,1,.8-.362c.29-.087.369-.124.448-.212.132-.146.152-.237.152-.675a3.4,3.4,0,0,1,.009-.35c.005-.005.237-.008.516-.007l.508,0Z" transform="translate(-249.042 -238.122)" fill="#fff"/>
      <path id="Path_527787" data-name="Path 527787" d="M478.357-1058.012a3.044,3.044,0,0,0-.719.195,2.7,2.7,0,0,0-1.291,1.2,2.659,2.659,0,0,0-.288,1.531,2.954,2.954,0,0,0,.075.376c.005.019.017.06.025.093a2.578,2.578,0,0,0,.189.456,2.659,2.659,0,0,0,1.623,1.308,2.525,2.525,0,0,0,1.252.039,2.631,2.631,0,0,0,1.787-1.358,2.615,2.615,0,0,0,.285-1.515,2.655,2.655,0,0,0-.564-1.348,2.606,2.606,0,0,0-1.222-.85A2.564,2.564,0,0,0,478.357-1058.012Zm.464,1.045a1.9,1.9,0,0,1,.388.084,1.679,1.679,0,0,1,.582.376,1.579,1.579,0,0,1,.417.726,1.646,1.646,0,0,1,0,.773,1.621,1.621,0,0,1-1,1.1,1.654,1.654,0,0,1-.669.08,1.361,1.361,0,0,1-.37-.08.054.054,0,0,0-.033-.012,1.736,1.736,0,0,1-.368-.194,1.838,1.838,0,0,1-.394-.405,1.538,1.538,0,0,1-.264-.737,1.558,1.558,0,0,1,.453-1.248,1.991,1.991,0,0,1,.2-.179,1.843,1.843,0,0,1,.37-.194.06.06,0,0,0,.035-.012,1.1,1.1,0,0,1,.318-.075A1,1,0,0,1,478.82-1056.968Z" transform="translate(-469.66 -471.76)" fill="#fff"/>
      <path id="Path_527788" data-name="Path 527788" d="M146.39-1136.406a.523.523,0,0,0-.426.6,1.193,1.193,0,0,0,.06.2c.024.063.053.14.065.173s.043.12.068.193.053.152.059.174a.3.3,0,0,0,.02.057.649.649,0,0,1,.031.091c.011.043.025.095.031.117.08.292.083.305.14.566.04.184.067.339.113.653.023.149.053.649.053.853s-.032.763-.052.9c-.028.189-.045.308-.055.381-.005.041-.016.105-.024.14s-.024.113-.036.172a6.99,6.99,0,0,1-.227.859c-.089.269-.179.509-.246.66-.023.051-.055.123-.069.16s-.077.163-.136.28a8,8,0,0,1-2.706,3.058l-.18.12a9.355,9.355,0,0,1-1.155.6l-.14.056c-.128.052-.529.193-.6.212l-.187.053c-.08.023-.2.055-.266.069s-.159.035-.207.047-.116.025-.153.031l-.153.027-.191.035a1.1,1.1,0,0,1-.16.019.637.637,0,0,0-.112.013,7.133,7.133,0,0,1-.743.049,7.358,7.358,0,0,1-1.692-.164c-.209-.045-.485-.111-.526-.124l-.113-.035c-.23-.068-.629-.208-.819-.289-.245-.1-.718-.33-.886-.428s-.448-.265-.518-.313c-.1-.067-.113-.1-.044-.1a.555.555,0,0,0,.36-.159.522.522,0,0,0,0-.738.863.863,0,0,0-.4-.2c-.095-.031-.233-.077-.306-.1s-.151-.051-.173-.057a.673.673,0,0,1-.08-.027l-.42-.14-.42-.139-.153-.053c-.212-.073-.492-.16-.572-.176a.529.529,0,0,0-.537.25.718.718,0,0,0-.069.321c0,.028.016.079.025.116.035.132.742,2.24.777,2.309a.546.546,0,0,0,.1.128.522.522,0,0,0,.865-.212.535.535,0,0,0,.009-.309c-.068-.191-.065-.205.021-.139a11.817,11.817,0,0,0,1.05.672l.067.037c.048.029.4.208.56.281l.108.052.207.084c.1.041.2.081.208.088a.108.108,0,0,0,.048.013.066.066,0,0,1,.037.012,1.081,1.081,0,0,0,.265.1c.23.077.576.181.7.208l.18.044a9.574,9.574,0,0,0,1.432.217,10.227,10.227,0,0,0,1.266-.007,10.585,10.585,0,0,0,1.326-.2l.133-.033c.088-.023.195-.051.286-.079l.14-.04c.111-.032.45-.145.54-.18l.107-.04c.04-.013.377-.152.433-.18.32-.151.625-.308.8-.413a9.231,9.231,0,0,0,3.135-3c.057-.088.188-.305.2-.333.005-.011.028-.051.049-.087s.067-.117.1-.18.08-.155.107-.2c.087-.167.3-.649.341-.769.007-.019.024-.067.04-.107.087-.223.228-.682.3-.966.011-.044.025-.1.033-.133a10.557,10.557,0,0,0,.2-1.359,12.05,12.05,0,0,0,0-1.279,9.373,9.373,0,0,0-.274-1.579c-.048-.161-.064-.219-.108-.36-.06-.2-.117-.374-.153-.466-.016-.04-.032-.085-.036-.1a.144.144,0,0,0-.017-.04.944.944,0,0,1-.04-.1.625.625,0,0,0-.137-.249A.522.522,0,0,0,146.39-1136.406Z" transform="translate(-129.646 -394.427)" fill="#fff"/>
    </g>
  </g>
</svg>
