<svg xmlns="http://www.w3.org/2000/svg" xmlns:xlink="http://www.w3.org/1999/xlink" width="30" height="30" viewBox="0 0 30 30">
  <defs>
    <clipPath id="clip-path">
      <rect id="Rectangle_228197" data-name="Rectangle 228197" width="20" height="20" rx="5" fill="#e8f7f1"/>
    </clipPath>
  </defs>
  <g id="Group_272781" data-name="Group 272781" transform="translate(-372 -148)">
    <rect id="Rectangle_228196" data-name="Rectangle 228196" width="30" height="30" rx="5" transform="translate(372 148)" fill="#e2e1ee"/>
    <g id="Mask_Group_89463" data-name="Mask Group 89463" transform="translate(377 153)" clip-path="url(#clip-path)">
      <g id="Group_260188" data-name="Group 260188" transform="translate(2.303 1)">
        <path id="Path_528064" data-name="Path 528064" d="M7.028.988c-.119.011-.258.032-.311.043s-.171.04-.264.06-.22.055-.283.075l-.247.083a1.616,1.616,0,0,0-.169.066c-.021.011-.107.053-.2.094a4.165,4.165,0,0,0-1.205.866,5.11,5.11,0,0,0-.591.718,1.872,1.872,0,0,1-.107.179c-.026.041-.066.113-.09.16s-.049.1-.056.113c-.019.034-.062.13-.105.235-.017.041-.04.09-.049.109a1.235,1.235,0,0,0-.056.16,1.538,1.538,0,0,1-.137.4,1.665,1.665,0,0,1-.3.03,2.21,2.21,0,0,0-.618.1.674.674,0,0,1-.109.026,1.536,1.536,0,0,0-.26.105c-.034.015-.085.04-.113.051a3.3,3.3,0,0,0-.36.213l-.171.143A2.39,2.39,0,0,0,.843,5.4c-.036.049-.077.1-.092.117a3.069,3.069,0,0,0-.2.331s-.024.06-.055.126a1.517,1.517,0,0,0-.141.38c-.019.072-.045.173-.06.226a3.624,3.624,0,0,0-.028.857,3.376,3.376,0,0,0,.162.669,3.15,3.15,0,0,0,.38.674,2.809,2.809,0,0,0,.588.6,2.454,2.454,0,0,0,.736.331c.077.024.168.051.2.062s.134.03.226.045a6.315,6.315,0,0,0,1.154,0,.247.247,0,0,0,.117-.217.164.164,0,0,0-.073-.153l-.073-.07-.507-.011a2.246,2.246,0,0,1-.684-.058,2.161,2.161,0,0,1-.868-.288,1.617,1.617,0,0,1-.51-.661c-.038-.058-.079-.117-.09-.13A.1.1,0,0,1,1,8.2a1.5,1.5,0,0,0-.064-.147,2.16,2.16,0,0,1-.19-.646,1.878,1.878,0,0,1,.006-.64,2.076,2.076,0,0,1,.192-.621,2.006,2.006,0,0,1,.45-.631,2.153,2.153,0,0,1,.821-.535A3.4,3.4,0,0,1,3,4.839a1.832,1.832,0,0,1,.23.026c.164.032.207.023.3-.064.053-.051.073-.085.073-.126a.571.571,0,0,1,.026-.139c.013-.045.041-.137.058-.205A2.668,2.668,0,0,1,3.8,3.978c.015-.034.04-.089.053-.122a5.514,5.514,0,0,1,.254-.5,1.805,1.805,0,0,0,.107-.179.18.18,0,0,1,.026-.038.919.919,0,0,0,.073-.094c.034-.047.134-.168.222-.267a3.924,3.924,0,0,1,1.606-1.1,4.01,4.01,0,0,1,.847-.207,4.423,4.423,0,0,1,1,0l.33.06a4.375,4.375,0,0,1,1.168.443,4.179,4.179,0,0,1,1.175,1.051A4.049,4.049,0,0,1,11,3.573a.284.284,0,0,0,.064.077c.064.062.068.062.194.053a1.44,1.44,0,0,0,.26-.051,2.609,2.609,0,0,1,.744-.1,2.713,2.713,0,0,1,.669.075c.032.011.107.034.17.051a2.081,2.081,0,0,1,.382.145.991.991,0,0,0,.134.053.078.078,0,0,1,.04.028c.013.017.4.264.461.318a3.072,3.072,0,0,1,.8,1.075,2.9,2.9,0,0,1,.232.919,1.33,1.33,0,0,1,0,.48,2.983,2.983,0,0,1-.183.8c-.011.032-.034.087-.049.122a2.987,2.987,0,0,1-.286.508,3.115,3.115,0,0,1-1.151.968c-.047.019-.1.041-.119.051a1.226,1.226,0,0,1-.132.053,4.506,4.506,0,0,1-.475.124,2.628,2.628,0,0,1-.343.04c-.258.013-.318.036-.369.145a.19.19,0,0,0,.008.215c.06.1.121.119.332.119A2.958,2.958,0,0,0,13,9.775c.034-.009.117-.032.184-.049a3.794,3.794,0,0,0,.744-.305,3.639,3.639,0,0,0,1.024-.891,3.561,3.561,0,0,0,.228-.328s.034-.068.077-.145a3.992,3.992,0,0,0,.232-.544,1.645,1.645,0,0,0,.056-.207c.019-.077.047-.192.064-.254a5.125,5.125,0,0,0,0-1.177c-.017-.056-.045-.171-.062-.254a1.963,1.963,0,0,0-.057-.217c-.057-.151-.147-.371-.175-.424l-.1-.183A5.733,5.733,0,0,0,14,3.541c-.013,0-.007.007.011.026a2.755,2.755,0,0,0,.262.23c.056.043-.113.181-.062.237s.079.077.141.079.073.008.077.041,0,.043-.038.045c-.122.006-.151-.011-.381-.659a6.558,6.558,0,0,0-.717-.313L13.1,3.17a4.084,4.084,0,0,0-1.45-.047c-.113.021-.228.043-.254.049-.041.009-.058-.006-.149-.145a4.441,4.441,0,0,0-.806-.94A4.288,4.288,0,0,0,10,1.732a.868.868,0,0,1-.119-.073c-.062-.04-.153-.1-.205-.122s-.107-.058-.122-.068a4.472,4.472,0,0,0-.5-.224c-.062-.021-.136-.047-.16-.056a2.7,2.7,0,0,0-.382-.1l-.283-.058A4.271,4.271,0,0,0,7.028.988Z" transform="translate(-0.252 -0.963)" fill="#6f68a8" stroke="#6f68a8" stroke-linecap="round" stroke-linejoin="round" stroke-width="0.5"/>
        <path id="Path_528069" data-name="Path 528069" d="M4.354,10.869c-.126.079-.132.094-.132.314a7.9,7.9,0,0,1-.038.865,1.007,1.007,0,0,1-.461.6c-.051.024-.117.055-.145.07a.244.244,0,0,1-.06.026.646.646,0,0,1-.081-.145.988.988,0,0,0-.422-.437l-.168-.073a.761.761,0,0,0-.273-.028.757.757,0,0,0-.443.106.988.988,0,0,0-.386.386.9.9,0,0,0,0,.9.96.96,0,0,0,.443.414.6.6,0,0,0,.388.073c.35,0,.861-.329.861-.607a.2.2,0,0,1,.218-.133,1.134,1.134,0,0,0,.239-.1,1.4,1.4,0,0,0,.654-.648c.113-.228.124-.313.128-.917s0-.6-.134-.674C4.45,10.818,4.435,10.818,4.354,10.869ZM2.987,12.787a.487.487,0,0,0-.283-.222.466.466,0,0,0-.535.226.544.544,0,0,0-.009.411.432.432,0,0,0,.315.254l.109.036L2.7,13.45a.866.866,0,0,0,.179-.09A.482.482,0,0,0,2.987,12.787Z" transform="translate(-0.252 -0.963)" fill="#6f68a8" stroke="#6f68a8" stroke-linecap="round" stroke-linejoin="round" stroke-width="0.5" fill-rule="evenodd"/>
        <path id="Path_528070" data-name="Path 528070" d="M11.386,10.868c-.143.073-.139.047-.139.944V12.9c.117.128,0-.8,0,0a1.533,1.533,0,0,0,.815,1.292,1.5,1.5,0,0,0,.591.151l.194.013.068.143a.74.74,0,0,0,.215.3.925.925,0,0,0,1.475-.237.893.893,0,0,0,0-.9.982.982,0,0,0-.559-.454.716.716,0,0,0-.437-.026.913.913,0,0,0-.469.235c-.051.053-.109.111-.126.128a1.073,1.073,0,0,0-.1.177l-.068.147h-.134a.879.879,0,0,1-.429-.1,1.03,1.03,0,0,1-.561-.861c-.013-.156-.019-.179-.049-.173s.055-.215-.044-.425c.077-.089.053,1.193.085-.678v0c.007-.674.006-.678-.137-.752C11.479,10.818,11.482,10.818,11.386,10.868Zm2.588,2.821a.444.444,0,0,1,.254.418.433.433,0,0,1-.209.388.316.316,0,0,1-.237.068.427.427,0,0,1-.426-.266.469.469,0,0,1,.217-.608A.567.567,0,0,1,13.974,13.689Z" transform="translate(-0.252 -0.963)" fill="#6f68a8" stroke="#6f68a8" stroke-linecap="round" stroke-linejoin="round" stroke-width="0.5"/>
        <path id="Path_528071" data-name="Path 528071" d="M11.723,12.9c-.013-.156-.019-.179-.049-.173s-.041-.008.006-.057a.209.209,0,0,0-.009-.25c-.056-.094-.058-.111,0-.164s.041-.051.049-.632v0Z" transform="translate(-0.252 -0.963)" fill="#6f68a8" stroke="#6f68a8" stroke-linecap="round" stroke-linejoin="round" stroke-width="0.5"/>
        <path id="Path_528072" data-name="Path 528072" d="M11.247,11.811v.8l.075.083a.323.323,0,0,1,.075.109.288.288,0,0,1-.079.1l-.079.07Z" transform="translate(-0.252 -0.963)" fill="#6f68a8" stroke="#6f68a8" stroke-linecap="round" stroke-linejoin="round" stroke-width="0.5"/>
        <path id="Path_528074" data-name="Path 528074" d="M6.429,12.512a.292.292,0,0,0-.081.079,13.293,13.293,0,0,0-.036,2.273v2.219l-.107.049a.953.953,0,0,0-.5.448.885.885,0,0,0-.113.442.954.954,0,0,0,.676.906,1.1,1.1,0,0,0,.482.015c.041-.011.1-.024.122-.03a.938.938,0,0,0,.185-.1.951.951,0,0,0,.262-1.331,1.032,1.032,0,0,0-.377-.316L6.8,17.09s-.009-1-.015-2.232a12.145,12.145,0,0,0-.047-2.283.25.25,0,0,0-.081-.07A.3.3,0,0,0,6.429,12.512ZM6.7,17.583a.5.5,0,0,1,.243.205A.354.354,0,0,1,7,18.02a.363.363,0,0,1-.156.347.44.44,0,0,1-.687-.109.317.317,0,0,1-.066-.232.36.36,0,0,1,.049-.217A.461.461,0,0,1,6.7,17.583Z" transform="translate(-0.252 -0.963)" fill="#6f68a8" stroke="#6f68a8" stroke-linecap="round" stroke-linejoin="round" stroke-width="0.5"/>
        <path id="Path_528075" data-name="Path 528075" d="M9.1,12.514a.307.307,0,0,0-.085.079c-.034.049-.036.111-.045,1.077l-.009,1.024-.119.051a.982.982,0,0,0-.514.546,1.248,1.248,0,0,0,0,.655.94.94,0,0,0,.5.531.907.907,0,0,0,.52.075.966.966,0,0,0,.719-.541.619.619,0,0,0,.079-.36.727.727,0,0,0-.024-.3.981.981,0,0,0-.537-.6.44.44,0,0,1-.117-.066c-.008-.011-.015-.463-.015-1,0-1.075,0-1.075-.111-1.155A.259.259,0,0,0,9.1,12.514Zm.271,2.667a.4.4,0,0,1,.164.109.433.433,0,0,1,.053.591.413.413,0,0,1-.222.168.424.424,0,0,1-.473-.111.454.454,0,0,1,.205-.77A.433.433,0,0,1,9.369,15.18Z" transform="translate(-0.252 -0.963)" fill="#6f68a8" stroke="#6f68a8" stroke-linecap="round" stroke-linejoin="round" stroke-width="0.5"/>
        <path id="Path_528076" data-name="Path 528076" d="M11.265,8.53a.206.206,0,0,1-.152-.054.237.237,0,0,1-.049-.157V5.214a.226.226,0,0,1,.049-.157A.206.206,0,0,1,11.265,5a.189.189,0,0,1,.147.054.213.213,0,0,1,.054.157V8.319a.237.237,0,0,1-.049.157A.2.2,0,0,1,11.265,8.53Z" transform="translate(-0.252 -0.963)" fill="#6f68a8" stroke="#6f68a8" stroke-linecap="round" stroke-linejoin="round" stroke-width="0.5"/>
        <path id="Path_528077" data-name="Path 528077" d="M8.16,8.53a.206.206,0,0,1-.152-.054.237.237,0,0,1-.049-.157V5.243a.2.2,0,0,1,.054-.152.206.206,0,0,1,.152-.054H9.328a1.218,1.218,0,0,1,.854.275.977.977,0,0,1,.3.765.987.987,0,0,1-.3.765,1.218,1.218,0,0,1-.854.275H8.362v1.2a.237.237,0,0,1-.049.157A.2.2,0,0,1,8.16,8.53Zm.2-1.751h.917a.884.884,0,0,0,.6-.177.662.662,0,0,0,.206-.525.653.653,0,0,0-.206-.525.868.868,0,0,0-.6-.182H8.362Z" transform="translate(-0.252 -0.963)" fill="#6f68a8" stroke="#6f68a8" stroke-linecap="round" stroke-linejoin="round" stroke-width="0.5"/>
        <path id="Path_528078" data-name="Path 528078" d="M4.312,8.53A.218.218,0,0,1,4.184,8.5a.163.163,0,0,1-.054-.1.3.3,0,0,1,.029-.142L5.509,5.184a.315.315,0,0,1,.1-.137A.237.237,0,0,1,5.749,5a.215.215,0,0,1,.132.044.273.273,0,0,1,.1.137L7.339,8.255a.238.238,0,0,1,.029.142.131.131,0,0,1-.049.1A.2.2,0,0,1,7.2,8.53a.218.218,0,0,1-.142-.044.356.356,0,0,1-.088-.137L6.6,7.51l.2.1H4.69l.2-.1-.358.839a.435.435,0,0,1-.093.137A.183.183,0,0,1,4.312,8.53ZM5.744,5.508l-.79,1.859-.118-.093H6.652l-.108.093-.79-1.859Z" transform="translate(-0.252 -0.963)" fill="#6f68a8" stroke="#6f68a8" stroke-linecap="round" stroke-linejoin="round" stroke-width="0.5"/>
      </g>
    </g>
  </g>
</svg>
