<svg xmlns="http://www.w3.org/2000/svg" width="148" height="41.302" viewBox="0 0 148 41.302">
  <g id="Group_262525" data-name="Group 262525" transform="translate(0 0.08)">
    <path id="Path_528976" data-name="Path 528976" d="M87.517,26.505a2.029,2.029,0,0,0-.44-.359,3.915,3.915,0,0,0-.615-.308,4.282,4.282,0,0,0-.742-.218,3.847,3.847,0,0,0-.835-.074A2.627,2.627,0,0,0,83.254,26a1.389,1.389,0,0,0-.508,1.159,1.158,1.158,0,0,0,.285.806,1.935,1.935,0,0,0,.841.473q.566.181,1.436.368a9.684,9.684,0,0,1,1.743.5,2.685,2.685,0,0,1,1.139.812,2.249,2.249,0,0,1,.417,1.379,2.561,2.561,0,0,1-.243,1.2,2.318,2.318,0,0,1-.724.851,3.271,3.271,0,0,1-1.1.506,5.814,5.814,0,0,1-1.379.18,6.557,6.557,0,0,1-1.432-.131,6.18,6.18,0,0,1-1.328-.431,5.665,5.665,0,0,1-1.178-.726l.564-1.041a3.062,3.062,0,0,0,.57.444,5.4,5.4,0,0,0,1.753.688,4.8,4.8,0,0,0,1.059.1,2.914,2.914,0,0,0,1.592-.4,1.217,1.217,0,0,0,.55-1.1,1.187,1.187,0,0,0-.333-.86,2.416,2.416,0,0,0-.951-.524q-.626-.205-1.524-.406a10.522,10.522,0,0,1-1.649-.506,2.311,2.311,0,0,1-1.009-.747,2.1,2.1,0,0,1-.353-1.225,2.633,2.633,0,0,1,.42-1.563,2.748,2.748,0,0,1,1.216-.982,4.6,4.6,0,0,1,1.769-.356,5.163,5.163,0,0,1,1.215.114,4.9,4.9,0,0,1,1.056.362,4.613,4.613,0,0,1,.9.568Z" transform="translate(-33.371 -10.111)" fill="#fff"/>
    <path id="Path_528977" data-name="Path 528977" d="M99.386,36.06a3.571,3.571,0,0,1-1.461-.264,3.447,3.447,0,0,1-1.152-.781,3.835,3.835,0,0,1-.639-4.38A3.424,3.424,0,0,1,97.371,29.3a3.569,3.569,0,0,1,1.875-.525,3.473,3.473,0,0,1,1.83.437,2.927,2.927,0,0,1,1.18,1.234l-1.159.387a1.936,1.936,0,0,0-.772-.767,2.15,2.15,0,0,0-1.089-.259,2.183,2.183,0,0,0-1.179.356,2.392,2.392,0,0,0-.831.934,2.991,2.991,0,0,0,.053,2.671,2.521,2.521,0,0,0,.87.932,2.126,2.126,0,0,0,1.191.328,2.2,2.2,0,0,0,.8-.163,2.289,2.289,0,0,0,.67-.412,1.329,1.329,0,0,0,.39-.556l1.171.332a2.574,2.574,0,0,1-.641.927,3.266,3.266,0,0,1-1.032.65,3.672,3.672,0,0,1-1.317.254" transform="translate(-39.328 -11.879)" fill="#fff"/>
    <path id="Path_528978" data-name="Path 528978" d="M115.784,33.991l-1.192.021-.068-3.926a2.766,2.766,0,0,0-.414-1.606A1.277,1.277,0,0,0,113,27.961a2.009,2.009,0,0,0-.924.258,2.729,2.729,0,0,0-.808.664,2.57,2.57,0,0,0-.5.954l.074,4.241-1.192.021-.173-9.9,1.192-.021.077,4.383a3.164,3.164,0,0,1,1.124-1.212,2.98,2.98,0,0,1,1.557-.465,2.291,2.291,0,0,1,1.067.2,1.769,1.769,0,0,1,.7.614,2.855,2.855,0,0,1,.389.929,5.56,5.56,0,0,1,.135,1.163Z" transform="translate(-44.981 -9.994)" fill="#fff"/>
    <path id="Path_528979" data-name="Path 528979" d="M126.452,36.071A3.531,3.531,0,0,1,125,35.807a3.464,3.464,0,0,1-1.138-.775,3.584,3.584,0,0,1-.752-1.152,3.9,3.9,0,0,1-.048-2.787,3.574,3.574,0,0,1,.711-1.177,3.425,3.425,0,0,1,1.117-.814,3.58,3.58,0,0,1,1.452-.315,3.469,3.469,0,0,1,2.586,1.039,3.552,3.552,0,0,1,.759,1.152,3.9,3.9,0,0,1,.048,2.787,3.594,3.594,0,0,1-.711,1.177,3.421,3.421,0,0,1-1.118.814,3.577,3.577,0,0,1-1.451.315m-2.407-3.581a2.727,2.727,0,0,0,.341,1.31,2.51,2.51,0,0,0,.863.919,2.194,2.194,0,0,0,2.364-.048,2.525,2.525,0,0,0,.837-.962,2.768,2.768,0,0,0,.3-1.328,2.728,2.728,0,0,0-.341-1.31,2.537,2.537,0,0,0-.87-.924,2.12,2.12,0,0,0-1.191-.329,2.061,2.061,0,0,0-1.172.376,2.619,2.619,0,0,0-.83.962,2.752,2.752,0,0,0-.3,1.334" transform="translate(-50.466 -11.884)" fill="#fff"/>
    <path id="Path_528980" data-name="Path 528980" d="M140.627,36.071a3.531,3.531,0,0,1-1.455-.264,3.465,3.465,0,0,1-1.138-.775,3.585,3.585,0,0,1-.752-1.152,3.9,3.9,0,0,1-.048-2.787,3.572,3.572,0,0,1,.711-1.177,3.425,3.425,0,0,1,1.117-.814,3.58,3.58,0,0,1,1.452-.315,3.469,3.469,0,0,1,2.586,1.039,3.543,3.543,0,0,1,.759,1.152,3.9,3.9,0,0,1,.048,2.787,3.592,3.592,0,0,1-.711,1.177,3.421,3.421,0,0,1-1.118.814,3.575,3.575,0,0,1-1.451.315m-2.407-3.581a2.726,2.726,0,0,0,.341,1.31,2.51,2.51,0,0,0,.863.919,2.194,2.194,0,0,0,2.364-.048,2.525,2.525,0,0,0,.837-.962,2.768,2.768,0,0,0,.3-1.328,2.727,2.727,0,0,0-.341-1.31,2.537,2.537,0,0,0-.87-.924,2.121,2.121,0,0,0-1.191-.329,2.061,2.061,0,0,0-1.172.376,2.619,2.619,0,0,0-.83.962,2.751,2.751,0,0,0-.3,1.334" transform="translate(-56.29 -11.884)" fill="#fff"/>
    <path id="Path_528981" data-name="Path 528981" d="M151.838,24.134l1.192-.021.141,8.108q.011.587.176.72a.6.6,0,0,0,.4.129,2.329,2.329,0,0,0,.541-.071,3.349,3.349,0,0,0,.431-.136l.207.973a3.878,3.878,0,0,1-.7.216,3.765,3.765,0,0,1-.717.094,1.376,1.376,0,0,1-1.512-1.224,1.338,1.338,0,0,1,0-.248Z" transform="translate(-62.386 -9.968)" fill="#fff"/>
    <path id="Path_528982" data-name="Path 528982" d="M164.356,26.505a2.014,2.014,0,0,0-.44-.359,3.913,3.913,0,0,0-.615-.308,4.282,4.282,0,0,0-.742-.218,3.846,3.846,0,0,0-.835-.074,2.627,2.627,0,0,0-1.631.448,1.389,1.389,0,0,0-.508,1.159,1.158,1.158,0,0,0,.285.806,1.936,1.936,0,0,0,.841.473q.566.181,1.436.368a9.683,9.683,0,0,1,1.743.5,2.685,2.685,0,0,1,1.139.812,2.25,2.25,0,0,1,.417,1.379,2.562,2.562,0,0,1-.243,1.2,2.318,2.318,0,0,1-.724.851,3.271,3.271,0,0,1-1.1.506,5.814,5.814,0,0,1-1.379.18,6.558,6.558,0,0,1-1.432-.131,6.18,6.18,0,0,1-1.328-.431,5.666,5.666,0,0,1-1.178-.726l.564-1.041a3.063,3.063,0,0,0,.57.444,5.4,5.4,0,0,0,1.753.688,4.8,4.8,0,0,0,1.059.1,2.913,2.913,0,0,0,1.592-.4,1.217,1.217,0,0,0,.55-1.1,1.187,1.187,0,0,0-.333-.86,2.416,2.416,0,0,0-.952-.524q-.626-.205-1.525-.406a10.535,10.535,0,0,1-1.648-.506,2.308,2.308,0,0,1-1.009-.747,2.1,2.1,0,0,1-.353-1.225,2.634,2.634,0,0,1,.42-1.563,2.747,2.747,0,0,1,1.216-.982,4.6,4.6,0,0,1,1.769-.356,5.155,5.155,0,0,1,1.215.114,4.879,4.879,0,0,1,1.056.362,4.6,4.6,0,0,1,.9.568Z" transform="translate(-64.942 -10.111)" fill="#fff"/>
    <path id="Path_528983" data-name="Path 528983" d="M179.483,33.991l-1.192.021-.068-3.926a2.765,2.765,0,0,0-.415-1.606,1.277,1.277,0,0,0-1.113-.519,2,2,0,0,0-.923.258,2.714,2.714,0,0,0-.808.664,2.563,2.563,0,0,0-.5.954l.074,4.241-1.192.021-.173-9.9,1.192-.021.076,4.383a3.165,3.165,0,0,1,1.124-1.212,2.98,2.98,0,0,1,1.556-.465,2.292,2.292,0,0,1,1.068.2,1.774,1.774,0,0,1,.7.614,2.854,2.854,0,0,1,.389.929,5.554,5.554,0,0,1,.135,1.163Z" transform="translate(-71.153 -9.994)" fill="#fff"/>
    <path id="Path_528984" data-name="Path 528984" d="M190.152,36.071a3.53,3.53,0,0,1-1.455-.264,3.465,3.465,0,0,1-1.138-.775,3.585,3.585,0,0,1-.752-1.152,3.9,3.9,0,0,1-.048-2.787,3.581,3.581,0,0,1,.71-1.177,3.428,3.428,0,0,1,1.118-.814,3.58,3.58,0,0,1,1.452-.315,3.469,3.469,0,0,1,2.586,1.039,3.541,3.541,0,0,1,.758,1.152,3.9,3.9,0,0,1,.049,2.787,3.592,3.592,0,0,1-.711,1.177,3.425,3.425,0,0,1-1.118.814,3.579,3.579,0,0,1-1.451.315m-2.407-3.581a2.727,2.727,0,0,0,.341,1.31,2.506,2.506,0,0,0,.863.919,2.194,2.194,0,0,0,2.364-.048,2.53,2.53,0,0,0,.837-.962,2.776,2.776,0,0,0,.3-1.328,2.733,2.733,0,0,0-.341-1.31,2.532,2.532,0,0,0-.87-.924,2.121,2.121,0,0,0-1.191-.329,2.061,2.061,0,0,0-1.172.376,2.614,2.614,0,0,0-.83.962,2.753,2.753,0,0,0-.3,1.334" transform="translate(-76.638 -11.884)" fill="#fff"/>
    <path id="Path_528985" data-name="Path 528985" d="M205.333,36.058a2.815,2.815,0,0,1-1.552-.4,3.254,3.254,0,0,1-1.089-1.072l.075,4.275-1.192.021-.173-9.93,1.057-.018.023,1.331A3.25,3.25,0,0,1,203.56,29.2a2.869,2.869,0,0,1,1.47-.424,3.035,3.035,0,0,1,1.346.273,3.308,3.308,0,0,1,1.07.789,3.847,3.847,0,0,1,.718,1.152,3.794,3.794,0,0,1,.275,1.363,4.192,4.192,0,0,1-.368,1.838,3.3,3.3,0,0,1-1.095,1.346,2.854,2.854,0,0,1-1.644.52m-.384-1.025a2.04,2.04,0,0,0,.951-.238,2.317,2.317,0,0,0,.721-.6,2.678,2.678,0,0,0,.453-.847,2.925,2.925,0,0,0,.145-.969,2.72,2.72,0,0,0-.2-.99,2.642,2.642,0,0,0-.53-.823,2.469,2.469,0,0,0-.782-.557,2.209,2.209,0,0,0-.959-.191,2.027,2.027,0,0,0-.669.132,2.649,2.649,0,0,0-.651.353,2.468,2.468,0,0,0-.52.511,1.487,1.487,0,0,0-.274.608l.035,2.006a3.147,3.147,0,0,0,.556.821,2.612,2.612,0,0,0,.8.583A2.057,2.057,0,0,0,204.949,35.033Z" transform="translate(-82.751 -11.88)" fill="#fff"/>
    <path id="Path_528986" data-name="Path 528986" d="M220.059,36.058a2.815,2.815,0,0,1-1.552-.4,3.252,3.252,0,0,1-1.089-1.071l.075,4.275-1.192.021-.173-9.93,1.057-.018.023,1.331a3.245,3.245,0,0,1,1.079-1.062,2.869,2.869,0,0,1,1.47-.424,3.035,3.035,0,0,1,1.346.273,3.315,3.315,0,0,1,1.07.789,3.858,3.858,0,0,1,.718,1.153,3.793,3.793,0,0,1,.275,1.362,4.194,4.194,0,0,1-.368,1.839,3.3,3.3,0,0,1-1.095,1.346,2.854,2.854,0,0,1-1.644.52m-.383-1.025a2.032,2.032,0,0,0,.951-.238,2.318,2.318,0,0,0,.721-.6,2.68,2.68,0,0,0,.453-.847,2.926,2.926,0,0,0,.146-.969,2.722,2.722,0,0,0-.2-.99,2.641,2.641,0,0,0-.53-.823,2.46,2.46,0,0,0-.782-.557,2.209,2.209,0,0,0-.959-.191,2.041,2.041,0,0,0-.669.132,2.652,2.652,0,0,0-.651.354,2.47,2.47,0,0,0-.52.511,1.488,1.488,0,0,0-.274.608l.035,2.006a3.147,3.147,0,0,0,.556.821,2.623,2.623,0,0,0,.8.583,2.049,2.049,0,0,0,.925.2" transform="translate(-88.801 -11.88)" fill="#fff"/>
    <path id="Path_528987" data-name="Path 528987" d="M233.819,36.067a3.571,3.571,0,0,1-1.461-.264,3.5,3.5,0,0,1-1.152-.775,3.629,3.629,0,0,1-.765-1.152,3.725,3.725,0,0,1-.289-1.4,3.657,3.657,0,0,1,.429-1.826,3.539,3.539,0,0,1,3.125-1.873,3.391,3.391,0,0,1,1.872.473,3.537,3.537,0,0,1,1.255,1.3,3.635,3.635,0,0,1,.471,1.751c0,.09,0,.177,0,.263a1.466,1.466,0,0,1-.017.2l-5.865.1a2.627,2.627,0,0,0,.407,1.206,2.411,2.411,0,0,0,.875.816,2.255,2.255,0,0,0,1.143.282,2.451,2.451,0,0,0,1.22-.347,1.741,1.741,0,0,0,.778-.868l1.034.267a2.741,2.741,0,0,1-.668.934,3.333,3.333,0,0,1-1.059.656,3.776,3.776,0,0,1-1.331.254m-2.455-4.027,4.823-.084a2.549,2.549,0,0,0-.414-1.2,2.435,2.435,0,0,0-.881-.8,2.35,2.35,0,0,0-1.17-.275,2.324,2.324,0,0,0-1.146.316,2.37,2.37,0,0,0-.846.832A2.592,2.592,0,0,0,231.364,32.04Z" transform="translate(-94.563 -11.882)" fill="#fff"/>
    <path id="Path_528988" data-name="Path 528988" d="M248.6,29.845a2.932,2.932,0,0,0-1.57.482,2.383,2.383,0,0,0-.948,1.231l.077,4.368-1.192.021-.122-7.04,1.11-.019.028,1.6a3.309,3.309,0,0,1,.948-1.2,2.41,2.41,0,0,1,1.258-.531l.23,0a.837.837,0,0,1,.163.011Z" transform="translate(-100.6 -11.869)" fill="#fff"/>
    <path id="Path_528989" data-name="Path 528989" d="M57.635,39.358l2.771.9.092-.311A1.328,1.328,0,0,1,61.771,39a1.291,1.291,0,0,1,.376.054,1.327,1.327,0,0,1,.895,1.649h0l-.112.379,2.873.936,1.152-3.893a4.139,4.139,0,0,0-2.786-5.144h0l-.177-.054a4.268,4.268,0,0,0-5.305,2.885v0Z" transform="translate(-23.681 -13.51)" fill="#fff"/>
    <path id="Path_528990" data-name="Path 528990" d="M64.392,45.006l-.923,3.122a.51.51,0,0,1-.634.345l-.21-.063a.511.511,0,0,1-.344-.634l.923-3.123a.51.51,0,0,1,.634-.345l.21.062a.511.511,0,0,1,.344.635" transform="translate(-25.581 -18.242)" fill="#fff"/>
    <path id="Path_528991" data-name="Path 528991" d="M41.84,29.555l-.265.891A3.937,3.937,0,0,1,37.009,33.2,20.619,20.619,0,0,1,0,20.919,20.618,20.618,0,0,1,33.886,4.837c.065.053.13.106.189.159a.963.963,0,0,1,.247.643.9.9,0,0,1-.059.33l-.371.991-2.327,6.277-.442,1.18a.945.945,0,0,1-.495.537H26.723a1.533,1.533,0,0,0-.819,1.1s-.819,3-1.5,5.74a3.7,3.7,0,0,1-3.276,2.731H12.554a.568.568,0,0,1-.571-.566v-.343a1.006,1.006,0,0,1,1.007-1h5.52l.359-1.5H11.576c-1.5,0-1.82-.861-1.82-.861s-.772-1.463.318-4.33,3.2-2.944,3.2-2.944h8.849a.573.573,0,0,1,.571.572v.336a1.011,1.011,0,0,1-1.007,1.009H13.279c-1.979.206-1.7,4.306-1.7,4.306h8.666l.295.065a.725.725,0,0,1,.53.873l-.589,2.478h.648a1.394,1.394,0,0,0,1.367-.956s1.09-4.649,1.638-6.153a3.629,3.629,0,0,1,2.592-2.46H29.6l2.751-7.4A19.043,19.043,0,1,0,20.867,39.7a18.862,18.862,0,0,0,14.51-7.014A3.8,3.8,0,0,1,33.3,28.139l.365-1.245,2.769.9-.471,1.6a1.335,1.335,0,0,0,.9,1.652,1.382,1.382,0,0,0,.377.053,1.327,1.327,0,0,0,1.273-.95l.454-1.534Z" transform="translate(0 -0.08)" fill="#fff"/>
    <path id="Path_528992" data-name="Path 528992" d="M17.912,44.058a1.341,1.341,0,0,1,1.794-.555,1.491,1.491,0,1,1-1.794.555" transform="translate(-7.24 -17.851)" fill="#fff"/>
    <path id="Path_528993" data-name="Path 528993" d="M21.688,26.507a.368.368,0,1,1,.052.569.406.406,0,0,1-.052-.569" transform="translate(-8.874 -10.86)" fill="#fff"/>
    <path id="Path_528994" data-name="Path 528994" d="M23.772,26.507a.367.367,0,1,1,.052.569.407.407,0,0,1-.052-.569" transform="translate(-9.731 -10.86)" fill="#fff"/>
    <path id="Path_528995" data-name="Path 528995" d="M25.857,26.507a.367.367,0,1,1,.052.569.407.407,0,0,1-.052-.569" transform="translate(-10.588 -10.86)" fill="#fff"/>
    <path id="Path_528996" data-name="Path 528996" d="M27.942,26.507a.367.367,0,1,1,.052.569.407.407,0,0,1-.052-.569" transform="translate(-11.444 -10.86)" fill="#fff"/>
    <path id="Path_528997" data-name="Path 528997" d="M30.027,26.507a.367.367,0,1,1,.052.569.407.407,0,0,1-.052-.569" transform="translate(-12.301 -10.86)" fill="#fff"/>
    <path id="Path_528998" data-name="Path 528998" d="M32.112,26.507a.367.367,0,1,1,.052.569.407.407,0,0,1-.052-.569" transform="translate(-13.158 -10.86)" fill="#fff"/>
    <path id="Path_528999" data-name="Path 528999" d="M34.2,26.507a.367.367,0,1,1,.052.569.407.407,0,0,1-.052-.569" transform="translate(-14.014 -10.86)" fill="#fff"/>
    <path id="Path_529000" data-name="Path 529000" d="M36.282,26.507a.367.367,0,1,1,.052.569.407.407,0,0,1-.052-.569" transform="translate(-14.871 -10.86)" fill="#fff"/>
    <path id="Path_529001" data-name="Path 529001" d="M38.367,26.507a.367.367,0,1,1,.052.569.407.407,0,0,1-.052-.569" transform="translate(-15.728 -10.86)" fill="#fff"/>
    <path id="Path_529002" data-name="Path 529002" d="M21.224,28.36a.367.367,0,1,1,.052.569.407.407,0,0,1-.052-.569" transform="translate(-8.684 -11.62)" fill="#fff"/>
    <path id="Path_529003" data-name="Path 529003" d="M23.309,28.361a.367.367,0,1,1,.052.569.407.407,0,0,1-.052-.569" transform="translate(-9.541 -11.62)" fill="#fff"/>
    <path id="Path_529004" data-name="Path 529004" d="M25.394,28.36a.367.367,0,1,1,.052.569.407.407,0,0,1-.052-.569" transform="translate(-10.398 -11.62)" fill="#fff"/>
    <path id="Path_529005" data-name="Path 529005" d="M27.479,28.361a.367.367,0,1,1,.052.569.407.407,0,0,1-.052-.569" transform="translate(-11.254 -11.62)" fill="#fff"/>
    <path id="Path_529006" data-name="Path 529006" d="M29.564,28.36a.367.367,0,1,1,.052.569.407.407,0,0,1-.052-.569" transform="translate(-12.111 -11.62)" fill="#fff"/>
    <path id="Path_529007" data-name="Path 529007" d="M31.649,28.361a.367.367,0,1,1,.052.569.407.407,0,0,1-.052-.569" transform="translate(-12.968 -11.62)" fill="#fff"/>
    <path id="Path_529008" data-name="Path 529008" d="M33.734,28.36a.367.367,0,1,1,.052.569.407.407,0,0,1-.052-.569" transform="translate(-13.824 -11.62)" fill="#fff"/>
    <path id="Path_529009" data-name="Path 529009" d="M35.819,28.361a.367.367,0,1,1,.052.569.407.407,0,0,1-.052-.569" transform="translate(-14.681 -11.62)" fill="#fff"/>
    <path id="Path_529010" data-name="Path 529010" d="M37.9,28.36a.367.367,0,1,1,.052.569.407.407,0,0,1-.052-.569" transform="translate(-15.538 -11.62)" fill="#fff"/>
    <path id="Path_529011" data-name="Path 529011" d="M20.761,30.214a.367.367,0,1,1,.052.569.407.407,0,0,1-.052-.569" transform="translate(-8.494 -12.38)" fill="#fff"/>
    <path id="Path_529012" data-name="Path 529012" d="M22.846,30.214a.367.367,0,1,1,.052.569.407.407,0,0,1-.052-.569" transform="translate(-9.351 -12.38)" fill="#fff"/>
    <path id="Path_529013" data-name="Path 529013" d="M24.931,30.214a.367.367,0,1,1,.052.569.407.407,0,0,1-.052-.569" transform="translate(-10.207 -12.38)" fill="#fff"/>
    <path id="Path_529014" data-name="Path 529014" d="M27.016,30.214a.367.367,0,1,1,.052.569.407.407,0,0,1-.052-.569" transform="translate(-11.064 -12.38)" fill="#fff"/>
    <path id="Path_529015" data-name="Path 529015" d="M29.1,30.214a.367.367,0,1,1,.052.569.407.407,0,0,1-.052-.569" transform="translate(-11.921 -12.38)" fill="#fff"/>
    <path id="Path_529016" data-name="Path 529016" d="M31.186,30.214a.367.367,0,1,1,.052.569.407.407,0,0,1-.052-.569" transform="translate(-12.777 -12.38)" fill="#fff"/>
    <path id="Path_529017" data-name="Path 529017" d="M33.271,30.214a.367.367,0,1,1,.052.569.407.407,0,0,1-.052-.569" transform="translate(-13.634 -12.38)" fill="#fff"/>
    <path id="Path_529018" data-name="Path 529018" d="M35.356,30.214a.367.367,0,1,1,.052.569.407.407,0,0,1-.052-.569" transform="translate(-14.491 -12.38)" fill="#fff"/>
    <path id="Path_529019" data-name="Path 529019" d="M37.44,30.214a.367.367,0,1,1,.052.569.407.407,0,0,1-.052-.569" transform="translate(-15.347 -12.38)" fill="#fff"/>
    <path id="Path_529020" data-name="Path 529020" d="M34.824,44.058a1.21,1.21,0,1,1,1.967,1.318,1.21,1.21,0,1,1-1.967-1.318" transform="translate(-14.189 -17.851)" fill="#fff"/>
  </g>
</svg>
